# xmcd CD database file
#
# Track frame offsets:
#	150
#	23683
#	45323
#	65308
#	87505
#	113163
#	131525
#	158208
#	174868
#
# Disc length: 2603 seconds
#
# Revision: 0
# Processed by: cddbd v1.5PL3 Copyright (c) Steve Scherf et al.
# Submitted via: CDex 1.50beta8
#
DISCID=650a2909
DTITLE=当山ひとみ - 胸さわぎ
DYEAR=1992
DGENRE=JPop
TTITLE0=抱かれたら
TTITLE1=いつからかしら
TTITLE2=ＭＩＲＡＣＬＥ　ＣＯＭＥ　ＴＲＵＥ
TTITLE3=胸さわぎ
TTITLE4=ＣＯＭＩＮＧ　ＨＯＭＥ
TTITLE5=ＵＮＥＡＳＹ
TTITLE6=カプリシャス
TTITLE7=ＴＲＵＥ　ＷＨＥＮ　Ｉ　ＭＥＥＴ　ＹＯＵ
TTITLE8=幸せは眠い朝
EXTD=YEAR: 1992
EXTT0=
EXTT1=
EXTT2=
EXTT3=
EXTT4=
EXTT5=
EXTT6=
EXTT7=
EXTT8=
PLAYORDER=
